Coordinates
version=1
nRows=7
nColumns=40
inDegrees=yes

Units are S.I. units (second, meters, Newtons, ...)
Angles are in degrees.

endheader
time	pelvis_tilt	pelvis_list	pelvis_rotation	pelvis_tx	pelvis_ty	pelvis_tz	hip_flexion_r	hip_adduction_r	hip_rotation_r	knee_angle_r	knee_angle_r_beta	ankle_angle_r	subtalar_angle_r	mtp_angle_r	hip_flexion_l	hip_adduction_l	hip_rotation_l	knee_angle_l	knee_angle_l_beta	ankle_angle_l	subtalar_angle_l	mtp_angle_l	lumbar_extension	lumbar_bending	lumbar_rotation	arm_flex_r	arm_add_r	arm_rot_r	elbow_flex_r	pro_sup_r	wrist_flex_r	wrist_dev_r	arm_flex_l	arm_add_l	arm_rot_l	elbow_flex_l	pro_sup_l	wrist_flex_l	wrist_dev_l
     20.11000000	     -5.14954856	     -6.33972318	     -1.52278812	      1.04711985	      0.93239853	      0.41408608	     26.59778032	     -6.21162180	     -7.53768473	     60.77836461	     60.77836461	      3.89809802	    -11.82852246	     -1.62407830	     16.95921617	     -8.16603130	    -10.05194032	     24.40799932	     24.40799932	     15.04009135	     -6.84931602	      1.47974436	    -10.98906438	      3.89087473	      2.16230370	      9.98422040	    -12.54997845	      0.34324962	     35.93144536	     45.74069580	      0.00000000	      0.00000000	     14.56902569	    -20.00443303	      5.42973232	     52.29131700	     46.31606176	      0.00000000	      0.00000000
     20.12371429	     -5.23575639	     -6.44897001	     -1.75195918	      1.04592830	      0.93282396	      0.41408420	     27.58233569	     -5.96224449	     -7.29877457	     59.61904670	     59.61904670	      3.61465543	    -11.62344823	     -1.45856625	     16.44420993	     -8.23981046	    -10.15441927	     23.97910360	     23.97910360	     15.24261876	     -6.91948368	      1.48347314	    -10.98470578	      3.91526189	      1.65413532	      8.65904769	    -12.50832749	      0.42621237	     35.32323291	     45.75078837	      0.00000000	      0.00000000	     15.33369361	    -20.40874755	      5.25925983	     52.42795123	     46.33968912	      0.00000000	      0.00000000
     20.13742857	     -5.20038129	     -6.49444232	     -2.04922193	      1.04485161	      0.93355734	      0.41412430	     28.31580767	     -5.64410736	     -6.86911788	     58.17461469	     58.17461469	      3.21127266	    -11.68328717	     -1.30710051	     15.62001114	     -8.18897633	    -10.24845006	     23.24547848	     23.24547848	     15.27904109	     -7.20455533	      1.50503423	    -11.12433372	      3.85276769	      1.71523956	      7.26242639	    -12.71256470	      0.63904888	     34.18580673	     45.77526464	      0.00000000	      0.00000000	     16.57645000	    -20.36261654	      5.18926320	     52.37114759	     46.36250678	      0.00000000	      0.00000000
     20.15114286	     -5.23500785	     -6.58052023	     -2.30373572	      1.04374114	      0.93399707	      0.41418703	     29.01709957	     -5.34075970	     -6.60791867	     56.52873732	     56.52873732	      2.84216716	    -11.52362914	     -1.14695890	     14.98120806	     -8.20030341	    -10.29853919	     22.68628497	     22.68628497	     15.34611129	     -7.43870501	      1.39734994	    -11.14762821	      3.88713596	      1.52087292	      5.97476119	    -12.80761980	      0.79906983	     33.26153602	     45.79473214	      0.00000000	      0.00000000	     17.61150256	    -20.49282224	      5.15389715	     52.17300059	     46.37752749	      0.00000000	      0.00000000
     20.16485714	     -5.28429083	     -6.63154189	     -2.58202675	      1.04262308	      0.93431856	      0.41438470	     29.59498473	     -5.04007550	     -6.37456107	     54.55250799	     54.55250799	      2.34431375	    -11.37748081	     -1.55127978	     14.31642233	     -8.14231816	    -10.24787960	     21.99648288	     21.99648288	     14.93730656	     -8.09830288	      0.37713735	    -11.14983943	      3.81933148	      1.68703273	      4.75610034	    -12.94492226	      1.03232403	     31.67825934	     45.84495419	      0.00000000	      0.00000000	     19.38031302	    -20.33247059	      5.65724816	     50.52127037	     46.35317040	      0.00000000	      0.00000000
     20.17857143	     -5.36508149	     -6.70827487	     -2.85378540	      1.04154099	      0.93448092	      0.41470824	     30.08990642	     -4.69268724	     -6.20472666	     52.30451798	     52.30451798	      2.13974560	    -10.98147403	     -1.29736865	     13.77568204	     -8.18593493	    -10.38121061	     21.52848987	     21.52848987	     15.07965507	     -8.20576805	      0.32666901	    -11.15802202	      3.84312053	      1.43917862	      3.53893652	    -13.02504590	      1.05036888	     31.11091268	     45.85863260	      0.00000000	      0.00000000	     20.05248155	    -20.53631942	      5.55143120	     50.80026696	     46.37439570	      0.00000000	      0.00000000
     20.19228571	     -5.51921555	     -6.71045897	     -3.16585015	      1.04038159	      0.93436960	      0.41522276	     30.57204803	     -4.38341573	     -6.06820333	     49.76353984	     49.76353984	      2.04534636	    -10.44420555	     -1.05531237	     13.38546779	     -8.18841361	    -10.57319248	     21.19331307	     21.19331307	     15.23767087	     -8.36487943	      0.25420908	    -11.10955829	      3.76398463	      1.18438172	      2.40210472	    -13.04641280	      1.07113651	     30.58704258	     45.87045176	      0.00000000	      0.00000000	     20.67362027	    -20.84384982	      5.41199775	     51.01234816	     46.39616928	      0.00000000	      0.00000000
